<?xml version="1.0" encoding="UTF-8" standalone="no"?>
<svg
   viewBox="0 0 141.70506 141.76564"
   aria-hidden="true"
   class="text-logo"
   version="1.1"
   id="svg118"
   sodipodi:docname="image.svg"
   width="141.70506"
   height="141.76564"
   inkscape:version="1.2.1 (9c6d41e410, 2022-07-14)"
   xmlns:inkscape="http://www.inkscape.org/namespaces/inkscape"
   xmlns:sodipodi="http://sodipodi.sourceforge.net/DTD/sodipodi-0.dtd"
   xmlns="http://www.w3.org/2000/svg"
   xmlns:svg="http://www.w3.org/2000/svg">
  <defs
     id="defs122" />
  <sodipodi:namedview
     id="namedview120"
     pagecolor="#ffffff"
     bordercolor="#000000"
     borderopacity="0.25"
     inkscape:showpageshadow="2"
     inkscape:pageopacity="0.0"
     inkscape:pagecheckerboard="0"
     inkscape:deskcolor="#d1d1d1"
     showgrid="false"
     inkscape:zoom="1.7464607"
     inkscape:cx="389.07259"
     inkscape:cy="71.000737"
     inkscape:window-width="1499"
     inkscape:window-height="991"
     inkscape:window-x="26"
     inkscape:window-y="23"
     inkscape:window-maximized="0"
     inkscape:current-layer="svg118" />
  <g
     id="g98"
     transform="translate(0,0.039872)">
    <path
       d="M 159.07,89.29 A 70.94,70.94 0 1 0 20,63.52 H 32 A 58.78,58.78 0 0 1 145.23,49.93 l -11.66,3.12 a 46.54,46.54 0 0 0 -29,-26.52 l -2.15,12.13 a 34.31,34.31 0 0 1 2.77,63.26 l 3.19,11.9 a 46.52,46.52 0 0 0 28.33,-49 l 11.62,-3.1 A 57.94,57.94 0 0 1 147.27,85 Z"
       transform="translate(-19.79)"
       fill="var(--color-brand)"
       fill-rule="evenodd"
       id="path94" />
    <path
       d="M 108.92,139.3 A 70.93,70.93 0 0 1 19.79,76 h 12 a 59.48,59.48 0 0 0 1.78,9.91 58.73,58.73 0 0 0 3.63,9.91 l 10.68,-6.41 a 46.58,46.58 0 0 1 44.72,-65 L 90.43,36.54 A 34.38,34.38 0 0 0 57.36,79.75 C 57.67,80.88 58,82 58.43,83 L 72.09,74.81 68,63.93 80.9,50.68 97.21,47.17 101.9,53 l -7.52,7.61 -6.55,2.06 -4.69,4.82 2.3,6.38 c 0,0 4.64,4.94 4.65,4.94 l 6.57,-1.74 4.67,-5.13 10.2,-3.24 3,6.84 L 104.05,88.43 86.41,94 78.49,85.19 64.7,93.48 a 34.44,34.44 0 0 0 28.72,11.59 L 96.61,117 A 46.6,46.6 0 0 1 54.13,99.83 l -10.64,6.38 a 58.81,58.81 0 0 0 99.6,-9.77 l 11.8,4.29 a 70.77,70.77 0 0 1 -45.97,38.57 z"
       transform="translate(-19.79)"
       fill="var(--color-brand)"
       id="path96" />
  </g>
</svg>
